<?xml version="1.0" encoding="UTF-8" standalone="no"?>
<!-- Created with Inkscape (http://www.inkscape.org/) -->

<svg
   width="664.88983"
   height="251.63367"
   viewBox="0 0 175.91876 66.578076"
   version="1.1"
   id="svg1145"
   inkscape:version="1.1.1 (3bf5ae0d25, 2021-09-20)"
   sodipodi:docname="globsat.svg"
   xmlns:inkscape="http://www.inkscape.org/namespaces/inkscape"
   xmlns:sodipodi="http://sodipodi.sourceforge.net/DTD/sodipodi-0.dtd"
   xmlns="http://www.w3.org/2000/svg"
   xmlns:svg="http://www.w3.org/2000/svg">
  <sodipodi:namedview
     id="namedview1147"
     pagecolor="#ffffff"
     bordercolor="#666666"
     borderopacity="1.0"
     inkscape:pageshadow="2"
     inkscape:pageopacity="0.0"
     inkscape:pagecheckerboard="0"
     inkscape:document-units="mm"
     showgrid="false"
     units="px"
     inkscape:zoom="0.57898776"
     inkscape:cx="487.05693"
     inkscape:cy="-208.12184"
     inkscape:window-width="2560"
     inkscape:window-height="1369"
     inkscape:window-x="1072"
     inkscape:window-y="282"
     inkscape:window-maximized="1"
     inkscape:current-layer="layer1" />
  <defs
     id="defs1142">
    <inkscape:path-effect
       effect="fillet_chamfer"
       id="path-effect2919"
       is_visible="true"
       lpeversion="1"
       satellites_param="F,1,0,1,0,0.33697521,0,1 @ F,1,0,1,0,0.42840041,0,1 @ F,1,0,1,0,0.39021896,0,1 @ F,1,0,1,0,0.19361222,0,1 @ F,1,0,1,0,0.24945141,0,1 @ F,1,0,1,0,0.26612971,0,1 @ F,1,0,1,0,0.47351134,0,1 @ F,1,0,1,0,0.46918802,0,1 @ F,1,0,1,0,0.34256257,0,1 @ F,1,0,1,0,0.091549586,0,1 @ F,1,0,1,0,0.10182125,0,1 @ F,1,0,1,0,0.091599108,0,1 @ F,1,0,1,0,0.27141415,0,1 @ F,1,0,1,0,0.46918802,0,1 @ F,1,0,1,0,0.42945915,0,1 @ F,1,0,1,0,0.14233275,0,1 @ F,1,0,1,0,0.43585278,0,1 @ F,1,0,1,0,0.58925606,0,1 @ F,1,0,1,0,0.27141415,0,1 @ F,1,0,1,0,0.081797696,0,1 @ F,1,0,1,0,0.10182126,0,1 @ F,1,0,1,0,0.081766097,0,1 @ F,1,0,1,0,0.34256257,0,1 @ F,1,0,1,0,0.58925606,0,1 @ F,1,0,1,0,0.4740352,0,1 @ F,1,0,1,0,0.76151648,0,1 @ F,1,0,1,0,0.1551726,0,1 @ F,1,0,1,0,0.20404067,0,1 @ F,1,0,1,0,0.60644018,0,1"
       unit="px"
       method="auto"
       mode="F"
       radius="0"
       chamfer_steps="1"
       flexible="true"
       use_knot_distance="true"
       apply_no_radius="true"
       apply_with_radius="true"
       only_selected="true"
       hide_knots="false" />
  </defs>
  <g
     inkscape:label="Layer 1"
     inkscape:groupmode="layer"
     id="layer1"
     transform="translate(-24.379038,-115.1623)">
    <path
       d="m 101.7852,141.8858 c -0.0142,0.76705 0.3084,0.55511 1.0976,1.72388 1.75553,2.5985 2.38578,5.36227 0.9434,8.23913 -0.48633,0.97029 -1.94136,2.61985 -2.11691,3.22717 0.63341,0.15895 0.98531,-0.19769 1.61081,-0.61918 7.77336,-5.24286 1.05727,-12.63269 -1.5349,-12.571"
       style="fill:none;fill-opacity:1;fill-rule:evenodd;stroke:#000000;stroke-width:0.529167;stroke-miterlimit:4;stroke-dasharray:none;stroke-opacity:1"
       id="path70" />
    <path
       d="m 118.22157,135.2716 c -0.0284,1.53412 0.6168,1.11026 2.19521,3.44779 3.51105,5.197 4.77156,10.72456 1.88679,16.47826 -0.97266,1.94057 -3.88272,5.2397 -4.23383,6.45433 1.26682,0.31789 1.97063,-0.39539 3.22163,-1.23835 15.54672,-10.48572 2.11455,-25.26539 -3.0698,-25.14203"
       style="fill:none;fill-opacity:1;fill-rule:evenodd;stroke:#000000;stroke-width:0.529167;stroke-miterlimit:4;stroke-dasharray:none;stroke-opacity:1"
       id="path70-3" />
    <path
       d="m 139.9047,128.6574 c -0.0426,2.30118 0.92521,1.66539 3.29281,5.1717 5.26658,7.79548 7.15734,16.08683 2.8302,24.71737 -1.459,2.91086 -5.82409,7.85956 -6.35075,9.6815 1.90024,0.47684 2.95594,-0.59308 4.83244,-1.85752 23.32006,-15.72859 3.17183,-37.89808 -4.6047,-37.71305"
       style="fill:none;fill-opacity:1;fill-rule:evenodd;stroke:#000000;stroke-width:0.529167;stroke-miterlimit:4;stroke-dasharray:none;stroke-opacity:1"
       id="path70-2" />
    <path
       d="m 170.34742,147.03479 c -2.03517,0 -3.78635,0.66375 -3.881,2.3821 -0.0946,1.71834 1.69562,2.3821 3.881,2.3821 2.18537,0 2.09091,-2.52576 3.35221,-0.39371 1.26128,2.13205 -3.41997,11.00601 -1.78893,12.16176 1.63107,1.15573 6.51296,-6.32193 7.55449,-9.85585 2.62201,1.32123 3.17688,2.14443 3.17688,2.14443 h 4.07512 v 4.11267 h -5.63288 v 21.07727 l 18.95101,-0.0114 v -21.06589 h -7.10949 v -4.11267 h 4.49313 l -0.0659,-13.55693 h -4.42722 v -3.27465 h 7.10949 v -23.59011 l -18.95101,-0.009 v 23.59922 h 5.63288 v 3.27466 h -4.07062 c 0,0 -0.20694,0.59239 -3.18598,2.16607 -0.91417,-3.22011 -5.86937,-11.36326 -7.55219,-9.86723 -1.68281,1.49604 3.06315,11.56667 1.79123,12.85079 -1.27193,1.28415 -1.31705,-0.41354 -3.35221,-0.41354 z"
       style="fill:none;fill-opacity:1;fill-rule:evenodd;stroke:#000000;stroke-width:0.524965;stroke-miterlimit:4;stroke-dasharray:none;stroke-opacity:1"
       id="path28"
       sodipodi:nodetypes="zszzzcccccccccccccccccccccczzzz" />
    <g
       id="g5227"
       transform="matrix(0.36706046,0,0,0.36706046,52.874448,81.566074)"
       style="stroke-width:1.44163;stroke-miterlimit:4;stroke-dasharray:none">
      <path
         d="m 12.927831,92.513704 c -49.616434,0 -89.838395,40.220196 -89.838395,89.838396 0,49.61467 40.221961,89.83663 89.838395,89.83663 49.616434,0 89.836629,-40.22196 89.836629,-89.83663 0,-49.6182 -40.220195,-89.838396 -89.836629,-89.838396"
         style="fill:none;fill-opacity:1;fill-rule:nonzero;stroke:#000000;stroke-width:1.44163;stroke-miterlimit:4;stroke-dasharray:none;stroke-opacity:1"
         id="path22" />
      <path
         d="m 71.494237,143.25726 c 1.005417,-0.42333 2.070806,-3.07269 1.552223,-4.79778 -0.518584,-1.72508 -3.866445,-5.21052 -4.035778,-7.69761 -0.172861,-2.48355 -0.899584,-5.69383 -3.210278,-6.14186 -2.314223,-0.44803 -4.279195,-1.17475 -5.972528,-2.89983 -1.689806,-1.72509 -7.831668,-8.97114 -11.560529,-9.55675 -3.725333,-0.58914 -7.902223,1.51694 -9.454445,3.31258 -1.552222,1.79211 -1.760361,5.8667 -1.277056,8.90411 0.483306,3.03389 2.726973,7.14375 4.416778,7.48595 1.689806,0.34572 9.006418,-1.24178 12.770557,0.31044 3.760611,1.55575 8.763,3.69359 9.973028,4.7625 1.2065,1.07245 4.900084,7.112 6.798028,6.31825 z m 12.14614,78.33784 c -3.795889,1.37936 -4.071056,2.82928 -4.7625,4.07494 -0.687917,1.24178 -2.829278,2.06728 -4.208639,2.06728 -1.379362,0 -1.241778,2.55411 -1.104195,4.97063 0.137583,2.41653 -2.829278,5.45395 -3.520722,6.83331 -0.448028,0.89253 -0.462139,7.75406 -0.416278,12.49539 10.332862,-8.41375 18.760723,-19.08528 24.525113,-31.25999 -3.778251,-0.0529 -8.43139,0.0635 -10.512779,0.81844 z m -19.187584,27.17236 c 0,0 -2.483556,-3.68124 -2.483556,-4.55542 0,-0.87418 0,-5.9817 -0.874889,-6.85624 -0.874889,-0.87418 -2.899834,-2.53047 -4.970639,-2.48461 -2.070806,0.0459 -6.071306,0.4124 -6.808612,-0.001 -0.737305,-0.4131 0.829028,-4.1402 -1.471083,-4.96852 -2.303639,-0.82833 -6.028973,1.05833 -8.14564,2.48461 -2.116666,1.42663 -11.045473,0.3683 -11.595806,0.18415 -0.553861,-0.18415 -3.912306,-3.68124 -3.404306,-5.61375 0.504473,-1.93252 2.25425,-5.98241 1.979084,-7.45349 -0.278695,-1.47461 -1.795639,-3.26672 -0.691445,-5.19995 1.104195,-1.93322 6.074834,-7.04144 8.14564,-6.94972 2.070805,0.0917 3.633611,1.1042 6.208889,0 2.578806,-1.10419 5.062361,-2.62114 8.329084,-3.08328 3.266722,-0.45861 5.108222,0.82903 6.074833,2.67053 0.966612,1.8415 4.600223,10.49161 5.337529,10.26231 0.737305,-0.23284 2.578805,-4.46617 1.520472,-7.17903 -1.058333,-2.71639 -4.004028,-8.88295 -3.407834,-9.89542 0.599723,-1.01247 4.695473,-1.19591 4.833056,-5.38339 0.137584,-4.18747 -3.358444,-4.55436 -2.578805,-9.10872 0.783166,-4.55789 1.291166,-7.31661 4.649611,-9.43328 3.358445,-2.11667 7.6835,-6.30414 7.912806,-7.96219 0.232833,-1.65453 -1.471083,-2.39184 -3.771195,-2.4377 -2.300111,-0.0459 -5.799667,-0.0459 -6.074833,-2.43769 -0.275167,-2.39536 2.483555,-7.4542 4.878917,-6.81214 2.391833,0.64558 2.804583,5.66208 5.612694,5.42925 2.808112,-0.22931 6.166556,-3.26672 6.074834,-5.01297 -0.09172,-1.74978 -4.512028,-2.44123 -7.870473,-5.38339 -3.358444,-2.9457 -15.32114,-11.45823 -16.471195,-10.95375 -1.150056,0.508 2.667,7.54591 1.74625,9.20397 -0.92075,1.65453 -4.875389,0.13758 -5.291667,-0.87489 -0.41275,-1.01247 0.232833,-1.37936 -0.966611,-2.89983 -1.195917,-1.51695 -2.483556,-3.12914 -4.141612,-3.08328 -1.654527,0.0459 -7.313083,2.89983 -6.808611,5.47864 0.508,2.57528 4.141611,3.90878 5.062361,7.45419 0.92075,3.54189 4.141612,12.51303 3.266723,14.0335 -0.874889,1.51695 -5.475112,-5.38339 -9.112251,-6.07483 -3.633611,-0.68792 -14.354529,-1.88736 -15.459781,-2.85397 -1.104195,-0.96309 -3.681237,-3.45017 -1.748367,-5.29167 1.932517,-1.83797 4.003675,-3.26672 4.508147,-6.07131 0.508,-2.80811 -1.471083,-3.54541 -0.8255,-5.15408 0.642056,-1.61219 1.058334,-2.75872 0.550334,-3.88761 -0.504473,-1.12889 -0.645584,-2.82928 0.09172,-4.85422 0.737306,-2.02495 3.129139,-2.89984 3.958167,-2.25778 0.829028,0.64558 3.404306,3.27025 4.924778,2.71639 1.516944,-0.55034 1.471083,-2.80811 0.137583,-4.60022 -1.337028,-1.79564 -4.970639,-4.97064 -7.087306,-4.74134 -2.116667,0.22931 -4.847519,3.683 -6.956072,3.45017 -2.108906,-0.22931 -4.225573,-4.2792 -7.814734,-3.67947 -3.5891616,0.59972 -9.3870647,2.39183 -9.755012,3.26672 -0.3683,0.87489 0.8283223,4.09575 0.1841501,5.65855 -0.6441723,1.56634 -2.807053,1.15359 -3.45122526,0.23284 -0.64417226,-0.92075 -1.0583334,-4.09575 -4.09539744,-3.77472 -3.0367113,0.32102 -4.2333336,3.08327 -8.9266894,4.46263 -4.693356,1.38289 -6.580012,2.71639 -7.500409,0.82903 -0.920397,-1.88736 0.966258,-6.44172 -3.082925,-6.12069 -4.049184,0.32455 -4.279195,1.74978 -5.843764,4.87891 -1.56457,3.12914 -0.874184,3.63362 -1.932517,4.37092 -1.058334,0.73731 -2.991203,1.1042 -3.35915,2.85397 -0.3683,1.74625 -0.598311,5.56684 0,6.02545 0.597958,0.46214 1.564569,0.55386 1.242483,1.65805 -0.322086,1.1042 -3.5433,2.39184 -4.463697,2.48356 -0.920045,0.0917 -3.727098,-1.42522 -3.819173,-1.05833 -0.09208,0.37041 1.56457,4.00402 3.451225,4.18747 1.886656,0.18344 5.383742,-1.42522 7.086248,-1.15006 1.702506,0.27517 2.944989,1.3335 5.797903,1.01248 2.852914,-0.32103 5.613753,-1.15006 7.960431,1.3335 2.346678,2.48708 10.9054203,12.33311 11.6875287,17.16616 0.7824612,4.82953 0.8745362,5.01298 -0.092075,6.07131 -0.9662584,1.05833 -3.5429475,2.07081 -4.0029697,4.14161 -0.460375,2.07081 -0.4141611,6.53345 -1.56457,9.94128 -1.150408,3.40431 -2.530827,3.49603 -1.656644,7.82108 0.874183,4.32506 4.1874724,9.84603 6.9020976,13.11275 2.7149779,3.27025 6.07412812,7.59531 8.3749449,10.21715 2.3004641,2.62255 4.6933559,3.175 5.291667,2.11667 0.5979584,-1.05833 -0.18415,-5.15479 -1.7028584,-6.21312 -1.5183557,-1.05833 -4.5092058,-1.83797 -4.831292,-3.90878 -0.32208611,-2.0708 -3.3132891,-7.22489 -2.3466779,-7.87047 0.96625839,-0.64206 4.1412586,4.69547 6.9479588,5.70794 2.8070529,1.00895 5.10787,1.79211 5.567892,3.86292 0.460022,2.07081 0,2.43769 1.932517,5.01615 1.932517,2.57704 4.141258,8.4208 6.027914,9.15705 1.886656,0.73625 7.130698,1.01247 10.676115,3.54295 3.541889,2.53083 5.337528,2.34703 9.154584,2.48496 3.820583,0.13794 16.061973,-0.41416 17.487195,1.19627 1.425222,1.61044 1.379361,3.95747 2.808111,5.47582 1.425223,1.51836 4.046362,2.57669 4.87539,1.93252 z M -7.365712,94.813815 c -1.1041945,2.458861 -2.4518057,5.027084 -3.827639,6.614585 -3.312584,3.82058 -7.637639,7.17903 -9.708445,8.97467 -2.070806,1.79211 -2.162528,8.05039 -2.303639,9.05227 -0.137584,1.00189 -0.871361,2.40242 -2.070806,2.91042 -1.195917,0.50447 -2.021417,3.31258 -3.496028,3.35845 -1.471083,0.0459 -0.874889,-2.25425 -1.887361,-3.63362 -1.012472,-1.38288 -5.750278,1.3335 -7.408334,1.24178 -1.654528,-0.0917 -1.74625,-2.20839 -2.988028,-3.45016 -1.245306,-1.24531 -7.087306,0.59619 -9.158112,1.01247 -0.659694,0.13053 -1.495777,0.0776 -2.324805,-0.0635 11.955639,-12.71764 27.57664,-21.953365 45.173197,-26.017365"
         style="fill:none;fill-opacity:1;fill-rule:nonzero;stroke:#000000;stroke-width:1.44163;stroke-miterlimit:4;stroke-dasharray:none;stroke-opacity:1"
         id="path24" />
    </g>
  </g>
</svg>
