<?xml version="1.0" encoding="UTF-8" standalone="no"?>
<svg
   version="1.1"
   viewBox="0 0 1440 1440"
   xml:space="preserve"
   id="svg27"
   sodipodi:docname="icon.svg"
   inkscape:version="1.1.1 (3bf5ae0d25, 2021-09-20)"
   xmlns:inkscape="http://www.inkscape.org/namespaces/inkscape"
   xmlns:sodipodi="http://sodipodi.sourceforge.net/DTD/sodipodi-0.dtd"
   xmlns="http://www.w3.org/2000/svg"
   xmlns:svg="http://www.w3.org/2000/svg"><sodipodi:namedview
     id="namedview29"
     pagecolor="#ffffff"
     bordercolor="#666666"
     borderopacity="1.0"
     inkscape:pageshadow="2"
     inkscape:pageopacity="0.0"
     inkscape:pagecheckerboard="0"
     showgrid="false"
     showguides="false"
     inkscape:zoom="0.60625"
     inkscape:cx="667.21649"
     inkscape:cy="749.69072"
     inkscape:window-width="2560"
     inkscape:window-height="1369"
     inkscape:window-x="1072"
     inkscape:window-y="282"
     inkscape:window-maximized="1"
     inkscape:current-layer="g23" /><defs
     id="defs5"><clipPath
       id="a"><path
         d="m0 1080h1080v-1080h-1080z"
         id="path2" /></clipPath></defs><g
     transform="matrix(1.3333,0,0,-1.3333,-8.2474227,1446.5979)"
     id="g25"
     style="fill:#000000"><g
       clip-path="url(#a)"
       id="g23"
       style="fill:#000000"><g
         transform="translate(153.44289,252.96302)"
         id="g13"
         style="fill:#000000"><path
           d="m 848.82311,536.14214 c -13.006,12.869 -45.378,13.828 -101.26,38.973 -76.765,34.539 -163.77,73.685 -248.4,73.688 -17.523,10e-4 -34.532,-1.719 -50.553,-5.113 -9.711,-2.055 -19.403,-4.359 -28.938,-6.876 -17.301,15.792 -40.094,30.264 -57.033,30.265 -5.176,10e-4 -9.852,-1.251 -13.901,-3.721 -3.761,-2.294 -6.335,-5.061 -8.035,-8.074 -5.88,5.859 -11.092,11.689 -16.043,17.228 -18.491,20.683 -37.609,42.07 -74.344,42.073 h -0.001 c -7.498,10e-4 -15.343,-0.868 -23.982,-2.655 -7.729,-1.598 -14.216,-6.864 -17.355,-14.087 -3.122,-7.185 -2.552,-15.47 1.523,-22.164 9.876,-16.21 13.488,-45.952 17.31,-77.441 2.453,-20.205 4.976,-40.984 9.394,-61.007 -32.221,-30.52 -42.231,-59.017 -53.877,-99.214 -14.446,-49.855 -11.956,-88.308 -8.174,-122.6 1.326,-12.03 -0.727,-39.798 -2.787,-48.67 -6.014,-25.906 -30.572,-48.52 -53.029,-92.224 -6.626,-12.896 -13.884,-27.023 -21.785001,-42.47 -5.993,-11.721 -11.345,-25.069 -14.109,-32.938 l -0.389,-1.107 -0.255,-1.145 c -6.482,-29.067 1.963,-63.697 19.646001,-80.554 l 1.112,-1.061 1.264,-0.877 c 5.332,-3.7 19.664,-13.3100005 27.518,-17.7630005 13.629,-7.7299995 27.12,-11.4869995 41.242,-11.4869995 38.236,0 72.127,27.525 119.04,65.62 5.312,4.315 10.811,8.781 16.521,13.374 51.033,41.052 83.904,64.424 114.01,64.424 7.697,0 30.792,-1.316 39.568,-6.13 20.285,-11.129 29.261,-30.958 47.188,-79.618 16.393,-44.5060005 70.582,-79.146 114.12,-106.98 18.126,-11.587 35.247,-22.531 43.013,-30.294 3.512,-3.515 9.132,-8.845 16.248,-15.594 26.234,-24.883 10.918,-37.738 14.047,-36.966 7.524,1.858 17.091,7.989 20.063,11.703 207.09844,204.108192 240.87247,417.04922 170.81,602.159 l -39.379,69.331"
           fill="#ffffff"
           id="path11"
           style="fill:#000000"
           sodipodi:nodetypes="cccccccccsscccccccccccccccscsccsccccccccc" /><path
           d="m 103.55811,15.24814 c 2.78497,-1.887095 15.45466,31.203431 15.06165,46.001061 C 118.22675,76.04683 88.938735,110.92747 85.713651,105.3217 84.101109,102.51882 104.41279,87.276501 107.84641,63.065785 111.28004,38.855069 102.16562,16.191687 103.55811,15.24814 Z"
           style="fill:#ffffff;stroke-width:0.750019"
           id="path1156"
           sodipodi:nodetypes="szsss" /></g><g
         transform="translate(540.75,1046)"
         id="g17"
         style="fill:#000000"><path
           d="m -423.70842,-503.11 c 0,-290.38 132.57842,-471.02854 422.95842,-471.02854 290.38,0 526.62,177.73854 526.62,468.11854 0,290.38 -235.49,473.019175 -525.87,473.019175 -290.38,0 -423.70842,-179.729175 -423.70842,-470.109175 z M -0.752,-1046 c -144.24,0 -279.84,56.17 -381.84,158.16 -101.99,101.99 -158.16,237.6 -158.16,381.84 0,144.24 56.171,279.84 158.16,381.84 101.99,101.99 237.6,158.16 381.84,158.16 144.24,0 279.84,-56.17 381.84,-158.16 101.99,-101.99 158.16,-237.6 158.16,-381.84 0,-144.24 -56.171,-279.84 -158.16,-381.84 C 279.098,-989.83 143.488,-1046 -0.752,-1046"
           fill=""
           id="path15"
           style="fill:#000000"
           sodipodi:nodetypes="ssscsccscscscc" /></g><g
         transform="translate(535.65,861.14)"
         id="g21"
         style="fill:#000000"><path
           d="m 0,0 c -11.083,0 -21.653,0 -33.647,12.908 l 5.864,9.729 c 7.017,-4.042 36.586,-13.411 65.248,0 L 43.858,9.032 C 25.437,1.904 12.056,0 0,0"
           fill="#ffffff"
           id="path19"
           style="fill:#000000" /></g><g
         transform="translate(445.74,591.27)"
         id="g9"
         style="fill:#ffffff"><path
           d="m 0,0 c -11.796,0 -27.256,-7.831 -34.912,-17.953 -10.538,-13.929 -9.439,-30.199 -8.808,-37.473 0.63,-7.274 -3.186,-21.841 -0.345,-24.045 0.387,-0.301 0.741,-0.438 1.078,-0.438 2.122,0 3.523,5.449 8.243,9.226 5.467,4.375 23.538,24.026 27.816,32.178 4.278,8.151 21.323,31.961 18.073,34.886 C 8.354,-1.108 4.437,0 0,0"
           fill="#ffffff"
           id="path7"
           style="fill:#ffffff" /></g></g></g></svg>
