<?xml version="1.0" encoding="UTF-8" standalone="no"?>
<!-- Created with Inkscape (http://www.inkscape.org/) -->

<svg
   version="1.1"
   id="svg2"
   xml:space="preserve"
   width="1620.12"
   height="1615.2"
   viewBox="0 0 1620.12 1615.1999"
   sodipodi:docname="logo.svg"
   inkscape:version="1.1.1 (3bf5ae0d25, 2021-09-20)"
   xmlns:inkscape="http://www.inkscape.org/namespaces/inkscape"
   xmlns:sodipodi="http://sodipodi.sourceforge.net/DTD/sodipodi-0.dtd"
   xmlns="http://www.w3.org/2000/svg"
   xmlns:svg="http://www.w3.org/2000/svg"><defs
     id="defs6" /><sodipodi:namedview
     id="namedview4"
     pagecolor="#ffffff"
     bordercolor="#666666"
     borderopacity="1.0"
     inkscape:pageshadow="2"
     inkscape:pageopacity="0.0"
     inkscape:pagecheckerboard="0"
     showgrid="false"
     inkscape:zoom="0.20812499"
     inkscape:cx="672.67269"
     inkscape:cy="1482.2823"
     inkscape:window-width="2560"
     inkscape:window-height="1369"
     inkscape:window-x="1072"
     inkscape:window-y="282"
     inkscape:window-maximized="1"
     inkscape:current-layer="g10" /><g
     id="g8"
     inkscape:groupmode="layer"
     inkscape:label="ink_ext_XXXXXX"
     transform="matrix(1.3333333,0,0,-1.3333333,-3053.2133,2245.5999)"><g
       id="g10"
       transform="scale(0.1)"><g
         id="g1125"
         style="fill:#0f3946;fill-opacity:1"><path
           d="m 29060.7,16842 c -108.6,0 -197,-88.3 -197,-196.9 V 15217 c 0,-108.6 88.4,-197 197,-197 108.6,0 197,88.4 197,197 v 1428.1 c 0,108.6 -88.4,196.9 -197,196.9"
           style="fill:#0f3946;fill-opacity:1;fill-rule:nonzero;stroke:none"
           id="path34" /><path
           d="m 25018,15123.5 c -76.8,76.7 -201.7,76.7 -278.6,0 -76.7,-76.8 -76.7,-201.8 0,-278.6 l 1009.9,-1009.8 c 37.2,-37.2 86.6,-57.7 139.2,-57.7 52.6,0 102.1,20.5 139.3,57.7 76.8,76.8 76.8,201.8 0,278.6 L 25018,15123.5"
           style="fill:#0f3946;fill-opacity:1;fill-rule:nonzero;stroke:none"
           id="path36" /><path
           d="m 24721.1,10852.7 c 0,108.6 -88.4,197 -197,197 H 23096 c -108.6,0 -196.9,-88.4 -196.9,-197 0,-108.6 88.3,-196.9 196.9,-196.9 h 1428.1 c 108.6,0 197,88.3 197,196.9"
           style="fill:#0f3946;fill-opacity:1;fill-rule:nonzero;stroke:none"
           id="path38" /><path
           d="M 25627.4,7819.8 24617.6,6810 c -76.8,-76.8 -76.8,-201.7 0,-278.5 37.2,-37.2 86.6,-57.7 139.2,-57.7 52.7,0 102.1,20.5 139.3,57.7 l 1009.8,1009.8 c 76.8,76.7 76.8,201.7 0,278.5 -76.7,76.8 -201.7,76.8 -278.5,0"
           style="fill:#0f3946;fill-opacity:1;fill-rule:nonzero;stroke:none"
           id="path40" /><path
           d="m 32199.8,7698 c -76.8,76.7 -201.8,76.7 -278.6,0 -76.7,-76.8 -76.7,-201.8 0,-278.6 l 1009.9,-1009.8 c 37.2,-37.2 86.6,-57.7 139.2,-57.7 52.6,0 102.1,20.5 139.3,57.7 76.8,76.8 76.8,201.7 0,278.5 L 32199.8,7698"
           style="fill:#0f3946;fill-opacity:1;fill-rule:nonzero;stroke:none"
           id="path42" /><path
           d="m 34853,10877.3 h -1428 c -108.7,0 -197,-88.3 -197,-196.9 0,-108.6 88.3,-197 197,-197 h 1428 c 108.6,0 197,88.4 197,197 0,108.6 -88.4,196.9 -197,196.9"
           style="fill:#0f3946;fill-opacity:1;fill-rule:nonzero;stroke:none"
           id="path44" /><path
           d="m 32182.4,13655.6 c 52.6,0 102,20.4 139.3,57.7 l 1009.8,1009.8 c 76.8,76.8 76.8,201.7 0,278.5 -76.8,76.8 -201.8,76.8 -278.6,0 l -1009.8,-1009.8 c -76.8,-76.8 -76.8,-201.7 0,-278.6 37.2,-37.2 86.7,-57.6 139.3,-57.6"
           style="fill:#0f3946;fill-opacity:1;fill-rule:nonzero;stroke:none"
           id="path46" /><path
           d="m 30130.8,6550 h -2177.1 c -139.9,0 -253.4,-113.4 -253.4,-253.3 v -552.1 c 0,-139.9 113.5,-253.3 253.4,-253.3 h 165.2 v -274.9 c 0,-269.8 218.7,-488.4 488.4,-488.4 h 759.1 c 269.7,0 488.4,218.6 488.4,488.4 v 274.9 h 276 c 139.9,0 253.3,113.4 253.3,253.3 v 552.1 c 0,139.9 -113.4,253.3 -253.3,253.3"
           style="fill:#0f3946;fill-opacity:1;fill-rule:nonzero;stroke:none"
           id="path48" /><path
           d="m 29067.1,12730.9 c -6.6,0 -422,-5.3 -843.2,-239.9 -557.3,-310.5 -866.4,-862.9 -918.6,-1642 -5.2,-77.6 -69.8,-137.1 -146.5,-137.1 -3.3,0 -6.6,0.1 -10,0.3 -81,5.5 -142.2,75.5 -136.8,156.5 74.4,1109.3 628.9,1637.7 1080.9,1885.7 487.5,267.4 954.3,270.4 974,270.4 81.1,0 146.9,-65.8 146.9,-146.9 0,-81.1 -65.6,-146.8 -146.7,-147 z m -6.4,1291.9 c -1679.3,0 -3040.8,-1331.1 -3040.8,-2973.1 0,-761.2 292.6,-1455.6 773.8,-1981.5 250.9,-274.2 442.9,-597 572.1,-945.5 l 332.3,-896 c 38.3,-103.4 136.9,-171.9 247.2,-171.9 h 2205.1 c 110.8,0 209.7,69.3 247.6,173.4 l 300.9,826.1 c 133.9,367.6 340.2,704.8 607.3,990.6 494,528.6 795.3,1232.3 795.3,2004.8 0,1642 -1361.5,2973.1 -3040.8,2973.1"
           style="fill:#0f3946;fill-opacity:1;fill-rule:nonzero;stroke:none"
           id="path50" /></g></g></g></svg>
