<?xml version="1.0" encoding="UTF-8" standalone="no"?>
<!-- Created with Inkscape (http://www.inkscape.org/) -->

<svg
   fill="none"
   width="51.999153"
   height="52.000431"
   id="svg3"
   xmlns="http://www.w3.org/2000/svg"
   style="fill:none;stroke:#000000;stroke-width:2;stroke-miterlimit:4;stroke-dasharray:none;stroke-opacity:1">
  <path
     id="sat"
     d="m 1.0018841,26.0415 c -0.07208,1.309267 1.29197,1.815053 2.9571461,1.815053 1.665176,0 1.593171,-1.924546 2.554224,-0.29999 0.961054,1.624488 -2.605885,8.386074 -1.36306,9.266893 1.242824,0.880591 10.0553828,-3.13059 10.8489588,-5.823262 1.997845,1.006695 5,5.000152 5,5.000152 h 5 v 5 l -15,-2.1e-5 v 9.99989 l 39.999998,-0.0087 V 41.000042 H 35.999153 v -5 l 5,-4.999848 v -10 l -5,-5.000038 V 11.000194 H 50.999155 V 1.0070941 L 10.999153,1.000173 v 10 l 15,2e-6 v 5.000038 l -5,1.9e-5 c 0,0 -2.730091,3.800866 -5,4.999962 -0.696556,-2.453571 -9.5684948,-7.390144 -10.8507118,-6.250413 -1.282217,1.139885 2.33402,8.81353 1.364813,9.79188 -0.96913,0.978502 -1.003494,-0.315099 -2.554224,-0.315156 -1.5507301,-5.7e-5 -2.8850651,0.505691 -2.9571461,1.814995 z"
      vector-effect="non-scaling-stroke" />
   <path
      d="m 25.999153,11.000175 10,1.9e-5"
      vector-effect="non-scaling-stroke"
      id="path3614" />
   <path
      d="m 25.999153,41.000346 10,-3.04e-4"
      vector-effect="non-scaling-stroke"
      id="path3616" />
   <path
      d="m 25.999153,36.000346 10,-3.04e-4"
      vector-effect="non-scaling-stroke"
      id="path3731" />
   <path
      d="m 25.999153,16.000213 10,-5.7e-5"
      vector-effect="non-scaling-stroke"
      id="path3733" />
</svg>
