<?xml version="1.0" encoding="UTF-8" standalone="no"?>
<!-- Created with Inkscape (http://www.inkscape.org/) -->

<svg
   fill="#000000"
   width="25.580711"
   height="50.000042"
   xmlns="http://www.w3.org/2000/svg"
   xmlns:svg="http://www.w3.org/2000/svg">

  <path
     id="sat"
     d="m 2.9598759,24.085361 c -1.55073,0 -2.88506496,0.505748 -2.95714596,1.815052 -0.07208,1.309267 1.29196996,1.815053 2.95714596,1.815053 1.665176,0 1.593171,-1.924546 2.554224,-0.29999 0.961054,1.624488 -2.605885,8.386074 -1.36306,9.266893 1.242824,0.880591 4.96261,-4.817001 5.756186,-7.509673 1.9978451,1.006695 2.4206541,1.633936 2.4206541,1.633936 h 3.105042 v 3.133691 h -4.292015 v 16.059719 l 14.439803,-0.0087 V 33.940018 h -5.417117 v -3.133691 h 3.423539 l -0.05021,-10.329819 h -3.373326 v -2.495097 h 5.417117 V 0.00690001 L 11.140907,0 v 17.981411 h 4.292015 v 2.495173 h -3.101613 c 0,0 -0.157679,0.451374 -2.4275881,1.65047 -0.696556,-2.453571 -4.472217,-8.658091 -5.754434,-7.51836 -1.282217,1.139885 2.33402,8.81353 1.364813,9.79188 -0.96913,0.978502 -1.003494,-0.315099 -2.554224,-0.315099 z" />
</svg>
