<?xml version="1.0" encoding="UTF-8" standalone="no"?>
<svg
   viewBox="0 0 50 50"
   width="50"
   height="50"
   xmlns="http://www.w3.org/2000/svg"
   xmlns:svg="http://www.w3.org/2000/svg">
  <path
     style="
      fill:none;
      stroke:#000000;
      stroke-width:2;
      stroke-linecap:butt;
      stroke-linejoin:miter;
      stroke-miterlimit:4;
      stroke-dasharray:none;
      stroke-opacity:1"
     d="m 29.638294,49.176433 c 0,0 19.560475,-13.474338 19.360076,-24.261653 C 48.806085,14.564253 29.587972,0.8132574 29.587972,0.8132574 c 0,0 9.573562,15.4979946 9.73036,24.1015226 0.168533,9.247541 -9.680038,24.261653 -9.680038,24.261653 z"
     id="path3245" />
  <path
     style="fill:none;stroke:#000000;stroke-width:2;stroke-linecap:butt;stroke-linejoin:miter;stroke-miterlimit:4;stroke-dasharray:none;stroke-opacity:1"
     d="m 11.517844,41.922702 c 0,0 13.692333,-9.432037 13.552053,-16.983158 -0.1346,-7.245368 -13.587279,-16.8710655 -13.587279,-16.8710655 0,0 6.701495,10.8485955 6.811252,16.8710655 0.117975,6.47328 -6.776026,16.983158 -6.776026,16.983158 z"
     id="path3245-8" />
  <path
     style="fill:none;stroke:#000000;stroke-width:2;stroke-linecap:butt;stroke-linejoin:miter;stroke-miterlimit:4;stroke-dasharray:none;stroke-opacity:1"
     d="m 0.86586327,32.251059 c 0,0 5.86814273,-4.042302 5.80802303,-7.278495 -0.057686,-3.105159 -5.82311954,-7.230457 -5.82311954,-7.230457 0,0 2.87206884,4.649398 2.91910794,7.230457 0.05056,2.774262 -2.90401143,7.278495 -2.90401143,7.278495 z"
     id="path3245-6" />
</svg>
